<svg width="35" height="7" viewBox="0 0 35 7" fill="none" xmlns="http://www.w3.org/2000/svg">
<path d="M8.5 6L2 3.5H8.5V6Z" fill="black"/>
<path d="M8.5 1.19231V1.38462V3.5H2L8.5 1V1.19231Z" fill="black"/>
<path d="M2 3.5L1.82051 3.96667L0.607161 3.5L1.82051 3.03333L2 3.5ZM8.5 6H9V6.72802L8.32051 6.46667L8.5 6ZM8.5 1L8.32051 0.533327L9 0.271985V1H8.5ZM2.17949 3.03333L8.67949 5.53333L8.32051 6.46667L1.82051 3.96667L2.17949 3.03333ZM8 1.38462V1.19231H9V1.38462H8ZM8 1.19231V1H9V1.19231H8ZM8.67949 1.46667L2.17949 3.96667L1.82051 3.03333L8.32051 0.533327L8.67949 1.46667ZM8.5 4H2V3H8.5V4ZM9 1.38462V3.5H8V1.38462H9ZM8 6V3.5H9V6H8ZM35 4H8.5V3H35V4Z" fill="black"/>
</svg>
