<svg width="35" height="7" viewBox="0 0 35 7" fill="none" xmlns="http://www.w3.org/2000/svg">
<path d="M26.5 6L33 3.5H26.5V6Z" fill="black"/>
<path d="M26.5 1.19231V1.38462V3.5H33L26.5 1V1.19231Z" fill="black"/>
<path d="M33 3.5L33.1795 3.96667L34.3928 3.5L33.1795 3.03333L33 3.5ZM26.5 6H26V6.72802L26.6795 6.46667L26.5 6ZM26.5 1L26.6795 0.533327L26 0.271985V1H26.5ZM32.8205 3.03333L26.3205 5.53333L26.6795 6.46667L33.1795 3.96667L32.8205 3.03333ZM27 1.38462V1.19231H26V1.38462H27ZM27 1.19231V1H26V1.19231H27ZM26.3205 1.46667L32.8205 3.96667L33.1795 3.03333L26.6795 0.533327L26.3205 1.46667ZM26.5 4H33V3H26.5V4ZM26 1.38462V3.5H27V1.38462H26ZM27 6V3.5H26V6H27ZM0 4H26.5V3H0V4Z" fill="black"/>
</svg>
